<svg xmlns="http://www.w3.org/2000/svg" viewBox="0 0 400 300" width="400" height="300">
  <defs>
    <linearGradient id="bg-cybersecurity-ids.svg" x1="0" y1="0" x2="1" y2="1">
      <stop offset="0%" stop-color="#1a0000"/>
      <stop offset="100%" stop-color="#2d0a0a"/>
    </linearGradient>
    <pattern id="grid-cybersecurity-ids.svg" width="20" height="20" patternUnits="userSpaceOnUse">
      <path d="M 20 0 L 0 0 0 20" fill="none" stroke="#f87171" stroke-width="0.35" opacity="0.15"/>
    </pattern>
  </defs>
  <!-- Background -->
  <rect width="400" height="300" fill="url(#bg-cybersecurity-ids.svg)"/>
  <!-- Grid -->
  <rect width="400" height="300" fill="url(#grid-cybersecurity-ids.svg)"/>
  <!-- Category badge -->
  <rect x="14" y="14" width="133" height="22" rx="6" fill="#dc2626" opacity="0.85"/>
  <text x="22" y="29" font-family="ui-monospace,monospace" font-size="11" font-weight="bold" fill="white" letter-spacing="1">CYBERSECURITY</text>
  <!-- Main illustration -->
  <polyline points="70,180 110,160 150,170 190,130 230,140 270,80 310,90 330,70" fill="none" stroke="#22c55e" stroke-width="2" opacity="0.7"/>
           <circle cx="190" cy="130" r="6" fill="#ef4444" opacity="0.9"/>
           <circle cx="270" cy="80" r="6" fill="#ef4444" opacity="0.9"/>
           <rect x="160" y="90" width="70" height="40" rx="6" fill="#2d0a0a" stroke="#dc2626" stroke-width="2" opacity="0.9"/>
           <rect x="240" y="50" width="70" height="40" rx="6" fill="#2d0a0a" stroke="#dc2626" stroke-width="2" opacity="0.9"/>
           <text x="168" y="114" font-family="monospace" font-size="9" fill="#f87171">ALERT!</text>
           <rect x="70" y="215" width="260" height="30" rx="8" fill="#1a0000" stroke="#dc2626" stroke-width="1.5" opacity="0.8"/>
           <rect x="80" y="225" width="40" height="10" rx="3" fill="#dc2626" opacity="0.6"/>
           <rect x="130" y="225" width="80" height="10" rx="3" fill="#b91c1c" opacity="0.4"/>
           <rect x="220" y="225" width="100" height="10" rx="3" fill="#991b1b" opacity="0.3"/>
  <!-- Bottom glow -->
  <rect x="0" y="260" width="400" height="40" fill="url(#bg-cybersecurity-ids.svg)" opacity="0.7"/>
</svg>