<svg xmlns="http://www.w3.org/2000/svg" viewBox="0 0 400 300" width="400" height="300">
  <defs>
    <linearGradient id="bg-dbms-inventory.svg" x1="0" y1="0" x2="1" y2="1">
      <stop offset="0%" stop-color="#0c1628"/>
      <stop offset="100%" stop-color="#0f2044"/>
    </linearGradient>
    <pattern id="grid-dbms-inventory.svg" width="20" height="20" patternUnits="userSpaceOnUse">
      <path d="M 20 0 L 0 0 0 20" fill="none" stroke="#60a5fa" stroke-width="0.35" opacity="0.15"/>
    </pattern>
  </defs>
  <!-- Background -->
  <rect width="400" height="300" fill="url(#bg-dbms-inventory.svg)"/>
  <!-- Grid -->
  <rect width="400" height="300" fill="url(#grid-dbms-inventory.svg)"/>
  <!-- Category badge -->
  <rect x="14" y="14" width="52" height="22" rx="6" fill="#2563eb" opacity="0.85"/>
  <text x="22" y="29" font-family="ui-monospace,monospace" font-size="11" font-weight="bold" fill="white" letter-spacing="1">DBMS</text>
  <!-- Main illustration -->
  <rect x="70" y="80" width="260" height="25" rx="6" fill="#1e3a5f" stroke="#2563eb" stroke-width="1.5" opacity="0.9"/>
           <rect x="70" y="115" width="260" height="20" rx="4" fill="#0c1628" stroke="#2563eb" stroke-width="1" opacity="0.7"/>
           <rect x="70" y="143" width="260" height="20" rx="4" fill="#0f2044" stroke="#2563eb" stroke-width="1" opacity="0.6"/>
           <rect x="70" y="171" width="260" height="20" rx="4" fill="#0c1628" stroke="#2563eb" stroke-width="1" opacity="0.7"/>
           <rect x="70" y="199" width="260" height="20" rx="4" fill="#0f2044" stroke="#2563eb" stroke-width="1" opacity="0.6"/>
           <rect x="75" y="85" width="50" height="15" rx="3" fill="#2563eb" opacity="0.4"/>
           <rect x="135" y="85" width="80" height="15" rx="3" fill="#2563eb" opacity="0.3"/>
           <rect x="225" y="85" width="50" height="15" rx="3" fill="#2563eb" opacity="0.3"/>
           <rect x="285" y="85" width="40" height="15" rx="3" fill="#2563eb" opacity="0.3"/>
           <rect x="80" y="235" width="100" height="20" rx="6" fill="#2563eb" opacity="0.5"/>
           <rect x="190" y="235" width="130" height="20" rx="6" fill="#1e3a5f" opacity="0.5"/>
  <!-- Bottom glow -->
  <rect x="0" y="260" width="400" height="40" fill="url(#bg-dbms-inventory.svg)" opacity="0.7"/>
</svg>