<svg xmlns="http://www.w3.org/2000/svg" viewBox="0 0 400 300" width="400" height="300">
  <defs>
    <linearGradient id="bg-iot-agriculture.svg" x1="0" y1="0" x2="1" y2="1">
      <stop offset="0%" stop-color="#042f2e"/>
      <stop offset="100%" stop-color="#1a3810"/>
    </linearGradient>
    <pattern id="grid-iot-agriculture.svg" width="20" height="20" patternUnits="userSpaceOnUse">
      <path d="M 20 0 L 0 0 0 20" fill="none" stroke="#86efac" stroke-width="0.35" opacity="0.15"/>
    </pattern>
  </defs>
  <!-- Background -->
  <rect width="400" height="300" fill="url(#bg-iot-agriculture.svg)"/>
  <!-- Grid -->
  <rect width="400" height="300" fill="url(#grid-iot-agriculture.svg)"/>
  <!-- Category badge -->
  <rect x="14" y="14" width="43" height="22" rx="6" fill="#16a34a" opacity="0.85"/>
  <text x="22" y="29" font-family="ui-monospace,monospace" font-size="11" font-weight="bold" fill="white" letter-spacing="1">IOT</text>
  <!-- Main illustration -->
  <circle cx="200" cy="140" r="70" fill="none" stroke="#16a34a" stroke-width="1.5" stroke-dasharray="8 4" opacity="0.5"/>
           <circle cx="200" cy="140" r="8" fill="#22c55e" opacity="0.8"/>
           <circle cx="150" cy="95" r="10" fill="#0d9488" opacity="0.8" stroke="#86efac" stroke-width="1.5"/>
           <circle cx="250" cy="95" r="10" fill="#0d9488" opacity="0.8" stroke="#86efac" stroke-width="1.5"/>
           <circle cx="145" cy="175" r="10" fill="#0d9488" opacity="0.8" stroke="#86efac" stroke-width="1.5"/>
           <circle cx="255" cy="175" r="10" fill="#0d9488" opacity="0.8" stroke="#86efac" stroke-width="1.5"/>
           <line x1="155" y1="102" x2="192" y2="135" stroke="#86efac" stroke-width="1.5" opacity="0.5"/>
           <line x1="245" y1="102" x2="208" y2="135" stroke="#86efac" stroke-width="1.5" opacity="0.5"/>
           <line x1="152" y1="168" x2="192" y2="147" stroke="#86efac" stroke-width="1.5" opacity="0.5"/>
           <line x1="248" y1="168" x2="208" y2="147" stroke="#86efac" stroke-width="1.5" opacity="0.5"/>
           <rect x="90" y="215" width="220" height="25" rx="8" fill="#052e16" stroke="#16a34a" stroke-width="1.5" opacity="0.8"/>
  <!-- Bottom glow -->
  <rect x="0" y="260" width="400" height="40" fill="url(#bg-iot-agriculture.svg)" opacity="0.7"/>
</svg>