<svg xmlns="http://www.w3.org/2000/svg" viewBox="0 0 400 300" width="400" height="300">
  <defs>
    <linearGradient id="bg-ml-sentiment.svg" x1="0" y1="0" x2="1" y2="1">
      <stop offset="0%" stop-color="#0f172a"/>
      <stop offset="100%" stop-color="#1e293b"/>
    </linearGradient>
    <pattern id="grid-ml-sentiment.svg" width="20" height="20" patternUnits="userSpaceOnUse">
      <path d="M 20 0 L 0 0 0 20" fill="none" stroke="#fb923c" stroke-width="0.35" opacity="0.15"/>
    </pattern>
  </defs>
  <!-- Background -->
  <rect width="400" height="300" fill="url(#bg-ml-sentiment.svg)"/>
  <!-- Grid -->
  <rect width="400" height="300" fill="url(#grid-ml-sentiment.svg)"/>
  <!-- Category badge -->
  <rect x="14" y="14" width="34" height="22" rx="6" fill="#ea580c" opacity="0.85"/>
  <text x="22" y="29" font-family="ui-monospace,monospace" font-size="11" font-weight="bold" fill="white" letter-spacing="1">ML</text>
  <!-- Main illustration -->
  <rect x="70" y="70" width="260" height="60" rx="10" fill="#1e293b" stroke="#ea580c" stroke-width="1.5" opacity="0.8"/>
           <rect x="80" y="85" width="160" height="16" rx="4" fill="#fb923c" opacity="0.7"/>
           <rect x="80" y="107" width="60" height="10" rx="3" fill="#64748b" opacity="0.5"/>
           <rect x="70" y="150" width="260" height="60" rx="10" fill="#1e293b" stroke="#ea580c" stroke-width="1.5" opacity="0.6"/>
           <rect x="80" y="165" width="80" height="16" rx="4" fill="#22c55e" opacity="0.7"/>
           <rect x="80" y="187" width="100" height="10" rx="3" fill="#64748b" opacity="0.5"/>
           <rect x="70" y="230" width="260" height="60" rx="10" fill="#1e293b" stroke="#ea580c" stroke-width="1.5" opacity="0.4"/>
           <rect x="80" y="245" width="40" height="16" rx="4" fill="#ef4444" opacity="0.7"/>
  <!-- Bottom glow -->
  <rect x="0" y="260" width="400" height="40" fill="url(#bg-ml-sentiment.svg)" opacity="0.7"/>
</svg>