<svg xmlns="http://www.w3.org/2000/svg" viewBox="0 0 400 300" width="400" height="300">
  <defs>
    <linearGradient id="bg-mobile-flutter.svg" x1="0" y1="0" x2="1" y2="1">
      <stop offset="0%" stop-color="#0f172a"/>
      <stop offset="100%" stop-color="#1a1035"/>
    </linearGradient>
    <pattern id="grid-mobile-flutter.svg" width="20" height="20" patternUnits="userSpaceOnUse">
      <path d="M 20 0 L 0 0 0 20" fill="none" stroke="#fb923c" stroke-width="0.35" opacity="0.15"/>
    </pattern>
  </defs>
  <!-- Background -->
  <rect width="400" height="300" fill="url(#bg-mobile-flutter.svg)"/>
  <!-- Grid -->
  <rect width="400" height="300" fill="url(#grid-mobile-flutter.svg)"/>
  <!-- Category badge -->
  <rect x="14" y="14" width="70" height="22" rx="6" fill="#ea580c" opacity="0.85"/>
  <text x="22" y="29" font-family="ui-monospace,monospace" font-size="11" font-weight="bold" fill="white" letter-spacing="1">MOBILE</text>
  <!-- Main illustration -->
  <rect x="155" y="50" width="90" height="180" rx="16" fill="#1e293b" stroke="#ea580c" stroke-width="2" opacity="0.9"/>
           <rect x="163" y="65" width="74" height="130" rx="8" fill="#0f172a" opacity="0.9"/>
           <rect x="163" y="65" width="74" height="35" rx="8" fill="#1e3a1e" opacity="0.9"/>
           <circle cx="185" cy="83" r="8" fill="#fb923c" opacity="0.4"/>
           <rect x="167" y="110" width="66" height="12" rx="4" fill="#1e293b" stroke="#fb923c" stroke-width="1" opacity="0.7"/>
           <rect x="167" y="130" width="66" height="12" rx="4" fill="#1e293b" stroke="#fb923c" stroke-width="1" opacity="0.7"/>
           <rect x="167" y="150" width="66" height="12" rx="4" fill="#1e293b" stroke="#fb923c" stroke-width="1" opacity="0.7"/>
           <circle cx="200" cy="220" r="6" fill="#ea580c" opacity="0.5"/>
           <rect x="90" y="100" width="60" height="90" rx="12" fill="#1e293b" stroke="#ea580c" stroke-width="1.5" opacity="0.6"/>
           <rect x="250" y="100" width="60" height="90" rx="12" fill="#1e293b" stroke="#ea580c" stroke-width="1.5" opacity="0.6"/>
  <!-- Bottom glow -->
  <rect x="0" y="260" width="400" height="40" fill="url(#bg-mobile-flutter.svg)" opacity="0.7"/>
</svg>