<svg xmlns="http://www.w3.org/2000/svg" viewBox="0 0 400 300" width="400" height="300">
  <defs>
    <linearGradient id="bg-web-lms.svg" x1="0" y1="0" x2="1" y2="1">
      <stop offset="0%" stop-color="#0f172a"/>
      <stop offset="100%" stop-color="#1a2744"/>
    </linearGradient>
    <pattern id="grid-web-lms.svg" width="20" height="20" patternUnits="userSpaceOnUse">
      <path d="M 20 0 L 0 0 0 20" fill="none" stroke="#a78bfa" stroke-width="0.35" opacity="0.15"/>
    </pattern>
  </defs>
  <!-- Background -->
  <rect width="400" height="300" fill="url(#bg-web-lms.svg)"/>
  <!-- Grid -->
  <rect width="400" height="300" fill="url(#grid-web-lms.svg)"/>
  <!-- Category badge -->
  <rect x="14" y="14" width="43" height="22" rx="6" fill="#7c3aed" opacity="0.85"/>
  <text x="22" y="29" font-family="ui-monospace,monospace" font-size="11" font-weight="bold" fill="white" letter-spacing="1">WEB</text>
  <!-- Main illustration -->
  <rect x="70" y="70" width="260" height="175" rx="12" fill="#1a2744" stroke="#7c3aed" stroke-width="2" opacity="0.8"/>
           <rect x="70" y="70" width="75" height="175" rx="12" fill="#0f172a" opacity="0.9"/>
           <rect x="80" y="90" width="55" height="30" rx="6" fill="#7c3aed" opacity="0.4"/>
           <rect x="80" y="130" width="55" height="20" rx="4" fill="#6d28d9" opacity="0.3"/>
           <rect x="80" y="158" width="55" height="20" rx="4" fill="#6d28d9" opacity="0.3"/>
           <rect x="80" y="186" width="55" height="20" rx="4" fill="#6d28d9" opacity="0.3"/>
           <rect x="160" y="85" width="155" height="60" rx="8" fill="#0f172a" stroke="#7c3aed" stroke-width="1.5" opacity="0.8"/>
           <rect x="170" y="100" width="100" height="10" rx="3" fill="#a78bfa" opacity="0.5"/>
           <rect x="170" y="118" width="70" height="8" rx="3" fill="#6d28d9" opacity="0.4"/>
           <rect x="160" y="160" width="155" height="60" rx="8" fill="#0f172a" stroke="#7c3aed" stroke-width="1.5" opacity="0.6"/>
           <rect x="170" y="175" width="100" height="10" rx="3" fill="#a78bfa" opacity="0.5"/>
           <rect x="85" y="255" width="230" height="15" rx="4" fill="#2d1f00" opacity="0"/>
  <!-- Bottom glow -->
  <rect x="0" y="260" width="400" height="40" fill="url(#bg-web-lms.svg)" opacity="0.7"/>
</svg>