<svg xmlns="http://www.w3.org/2000/svg" viewBox="0 0 400 300" width="400" height="300">
  <defs>
    <linearGradient id="bg-web-social.svg" x1="0" y1="0" x2="1" y2="1">
      <stop offset="0%" stop-color="#0f172a"/>
      <stop offset="100%" stop-color="#162033"/>
    </linearGradient>
    <pattern id="grid-web-social.svg" width="20" height="20" patternUnits="userSpaceOnUse">
      <path d="M 20 0 L 0 0 0 20" fill="none" stroke="#34d399" stroke-width="0.35" opacity="0.15"/>
    </pattern>
  </defs>
  <!-- Background -->
  <rect width="400" height="300" fill="url(#bg-web-social.svg)"/>
  <!-- Grid -->
  <rect width="400" height="300" fill="url(#grid-web-social.svg)"/>
  <!-- Category badge -->
  <rect x="14" y="14" width="43" height="22" rx="6" fill="#059669" opacity="0.85"/>
  <text x="22" y="29" font-family="ui-monospace,monospace" font-size="11" font-weight="bold" fill="white" letter-spacing="1">WEB</text>
  <!-- Main illustration -->
  <circle cx="160" cy="120" r="30" fill="#1e293b" stroke="#059669" stroke-width="2" opacity="0.8"/>
           <circle cx="240" cy="100" r="22" fill="#1e293b" stroke="#059669" stroke-width="1.5" opacity="0.7"/>
           <circle cx="300" cy="150" r="18" fill="#1e293b" stroke="#059669" stroke-width="1.5" opacity="0.6"/>
           <line x1="185" y1="125" x2="220" y2="112" stroke="#34d399" stroke-width="1.5" opacity="0.5"/>
           <line x1="260" y1="107" x2="283" y2="138" stroke="#34d399" stroke-width="1.5" opacity="0.5"/>
           <rect x="80" y="170" width="240" height="14" rx="4" fill="#1e293b" stroke="#059669" stroke-width="1" opacity="0.7"/>
           <rect x="80" y="194" width="240" height="12" rx="4" fill="#0f2744" stroke="#059669" stroke-width="1" opacity="0.5"/>
           <rect x="80" y="216" width="240" height="12" rx="4" fill="#1e293b" stroke="#059669" stroke-width="1" opacity="0.6"/>
           <circle cx="160" cy="120" r="12" fill="#059669" opacity="0.3"/>
           <circle cx="240" cy="100" r="8" fill="#059669" opacity="0.3"/>
  <!-- Bottom glow -->
  <rect x="0" y="260" width="400" height="40" fill="url(#bg-web-social.svg)" opacity="0.7"/>
</svg>