<svg xmlns="http://www.w3.org/2000/svg" viewBox="0 0 400 300" width="400" height="300">
  <defs>
    <linearGradient id="bg-web-hospital.svg" x1="0" y1="0" x2="1" y2="1">
      <stop offset="0%" stop-color="#0f172a"/>
      <stop offset="100%" stop-color="#1e2d3f"/>
    </linearGradient>
    <pattern id="grid-web-hospital.svg" width="20" height="20" patternUnits="userSpaceOnUse">
      <path d="M 20 0 L 0 0 0 20" fill="none" stroke="#6ee7b7" stroke-width="0.35" opacity="0.15"/>
    </pattern>
  </defs>
  <!-- Background -->
  <rect width="400" height="300" fill="url(#bg-web-hospital.svg)"/>
  <!-- Grid -->
  <rect width="400" height="300" fill="url(#grid-web-hospital.svg)"/>
  <!-- Category badge -->
  <rect x="14" y="14" width="43" height="22" rx="6" fill="#059669" opacity="0.85"/>
  <text x="22" y="29" font-family="ui-monospace,monospace" font-size="11" font-weight="bold" fill="white" letter-spacing="1">WEB</text>
  <!-- Main illustration -->
  <rect x="80" y="60" width="240" height="170" rx="12" fill="#0f172a" stroke="#059669" stroke-width="2" opacity="0.8"/>
           <rect x="80" y="60" width="240" height="35" rx="12" fill="#064e3b" opacity="0.9"/>
           <rect x="175" y="45" width="50" height="30" rx="4" fill="#059669" opacity="0.8"/>
           <rect x="196" y="55" width="8" height="10" rx="1" fill="white" opacity="0.9"/>
           <rect x="192" y="59" width="16" height="2" rx="1" fill="white" opacity="0.9"/>
           <rect x="95" y="110" width="100" height="80" rx="8" fill="#064e3b" stroke="#6ee7b7" stroke-width="1.5" opacity="0.7"/>
           <rect x="210" y="110" width="95" height="35" rx="6" fill="#064e3b" stroke="#6ee7b7" stroke-width="1.5" opacity="0.7"/>
           <rect x="210" y="155" width="95" height="35" rx="6" fill="#064e3b" stroke="#059669" stroke-width="1.5" opacity="0.7"/>
           <rect x="80" y="245" width="240" height="15" rx="4" fill="#064e3b" opacity="0.5"/>
  <!-- Bottom glow -->
  <rect x="0" y="260" width="400" height="40" fill="url(#bg-web-hospital.svg)" opacity="0.7"/>
</svg>